<?xml version="1.0" standalone="no"?>
<!DOCTYPE svg PUBLIC "-//W3C//DTD SVG 20010904//EN"
 "http://www.w3.org/TR/2001/REC-SVG-20010904/DTD/svg10.dtd">
<svg version="1.0" xmlns="http://www.w3.org/2000/svg"
 width="48.000000pt" height="48.000000pt" viewBox="0 0 48.000000 48.000000"
 preserveAspectRatio="xMidYMid meet">

<g transform="translate(0.000000,48.000000) scale(0.100000,-0.100000)"
fill="#ffffff" stroke="none">
<path d="M130 445 c-87 -27 -90 -35 -90 -205 0 -141 1 -150 22 -170 70 -65
286 -65 356 0 21 20 22 29 22 170 0 141 -1 150 -22 170 -50 46 -194 64 -288
35z m248 -34 c56 -28 56 -53 0 -83 -36 -19 -58 -23 -138 -23 -80 0 -102 4
-137 23 -53 28 -56 54 -10 78 51 27 87 33 168 30 52 -3 89 -11 117 -25z m-138
-126 c77 0 103 4 138 21 l42 21 0 -28 c0 -23 -8 -33 -42 -51 -62 -33 -214 -33
-275 0 -35 18 -43 28 -43 51 l0 28 43 -21 c34 -17 60 -21 137 -21z m0 -80 c77
0 103 4 138 21 l42 21 0 -33 c0 -29 -5 -36 -42 -56 -62 -33 -214 -33 -275 0
-38 20 -43 27 -43 56 l0 33 43 -21 c34 -17 60 -21 137 -21z m0 -90 c77 0 103
4 138 21 l42 21 0 -33 c0 -29 -5 -36 -42 -56 -62 -33 -214 -33 -275 0 -38 20
-43 27 -43 56 l0 33 43 -21 c34 -17 60 -21 137 -21z"/>
</g>
</svg>
