<?xml version="1.0" encoding="UTF-8"?>
<svg version="1.1" xmlns="http://www.w3.org/2000/svg" width="48" height="48">
    <path d="M0 0 C3.20669461 1.55875912 6.29085068 3.27506338 9.375 5.0625 C12.22125 6.691875 15.0675 8.32125 18 10 C18 18.58 18 27.16 18 36 C13.235625 38.7534375 13.235625 38.7534375 8.375 41.5625 C7.3854834 42.14588135 6.3959668 42.7292627 5.37646484 43.33032227 C-1.05013685 46.95153759 -1.05013685 46.95153759 -5.0625 47.15625 C-9.39168783 45.45220798 -13.35484074 43.26740661 -17.375 40.9375 C-20.22125 39.308125 -23.0675 37.67875 -26 36 C-26 27.42 -26 18.84 -26 10 C-22.82375 8.164375 -19.6475 6.32875 -16.375 4.4375 C-15.3854834 3.85411865 -14.3959668 3.2707373 -13.37646484 2.66967773 C-5.08583035 -2.00186939 -5.08583035 -2.00186939 0 0 Z M-9.1328125 4.1875 C-10.22166748 4.79658203 -10.22166748 4.79658203 -11.33251953 5.41796875 C-12.71479736 6.20107422 -12.71479736 6.20107422 -14.125 7 C-17.05375 8.65 -19.9825 10.3 -23 12 C-23 19.26 -23 26.52 -23 34 C-20.15375 35.69125 -17.3075 37.3825 -14.375 39.125 C-13.48989746 39.66527832 -12.60479492 40.20555664 -11.69287109 40.76220703 C-7.08001428 43.47764826 -7.08001428 43.47764826 -1.875 43.5625 C-0.451875 42.7890625 -0.451875 42.7890625 1 42 C1.58442871 41.69175293 2.16885742 41.38350586 2.77099609 41.06591797 C4.66761334 40.04435898 6.52010779 38.97061062 8.375 37.875 C10.56125 36.59625 12.7475 35.3175 15 34 C15 26.74 15 19.48 15 12 C12.07125 10.35 9.1425 8.7 6.125 7 C5.20348145 6.47792969 4.28196289 5.95585938 3.33251953 5.41796875 C2.60661621 5.01191406 1.88071289 4.60585937 1.1328125 4.1875 C0.38918457 3.76855469 -0.35444336 3.34960938 -1.12060547 2.91796875 C-4.49249091 1.27100989 -6.03887327 2.44443565 -9.1328125 4.1875 Z "
          fill="#ffffff" transform="translate(28,1)"/>
    <path d="M0 0 C2.58318982 2.51521114 3.17770678 3.76122205 3.375 7.3125 C-0.91911765 10.37972689 -0.91911765 10.37972689 -4.25 10.0625 C-6.04677527 9.49509728 -7.83745629 8.9083479 -9.625 8.3125 C-11.79215557 9.18733915 -11.79215557 9.18733915 -13.625 10.3125 C-13.625 12.2925 -13.625 14.2725 -13.625 16.3125 C-11.29645537 17.51088209 -11.29645537 17.51088209 -8.625 18.3125 C-7.635 17.6525 -6.645 16.9925 -5.625 16.3125 C-2.23806808 16.65987763 0.41221286 17.66650715 3.375 19.3125 C3.17770678 22.86377795 2.58318982 24.10978886 0 26.625 C-4.96769545 28.93754788 -9.23081037 28.9888357 -14.625 28.3125 C-19.3594316 26.39858084 -22.35184393 22.85881214 -24.625 18.3125 C-25.17819423 13.27027062 -25.20590722 9.41422059 -22.8125 4.875 C-16.65520796 -2.33782782 -8.94580312 -4.16442559 0 0 Z M-17.625 3.3125 C-20.57843945 6.48744741 -21.86346305 9.03800544 -22.125 13.3125 C-21.85393937 17.60840024 -20.64069531 20.14969761 -17.625 23.3125 C-14.04452692 25.33083617 -10.59476994 26.76540331 -6.484375 25.8203125 C-4.34519424 24.95183254 -4.34519424 24.95183254 -1.625 23.3125 C-1.625 22.3225 -1.625 21.3325 -1.625 20.3125 C-2.45644531 20.34730469 -3.28789062 20.38210937 -4.14453125 20.41796875 C-5.77455078 20.45857422 -5.77455078 20.45857422 -7.4375 20.5 C-8.51644531 20.53480469 -9.59539063 20.56960937 -10.70703125 20.60546875 C-13.625 20.3125 -13.625 20.3125 -15.48828125 19.05078125 C-16.84693842 16.97310963 -17.02805641 15.78146392 -17 13.3125 C-17.00773437 12.631875 -17.01546875 11.95125 -17.0234375 11.25 C-16.48727433 8.64277518 -15.83290112 7.80757769 -13.625 6.3125 C-10.70703125 6.01953125 -10.70703125 6.01953125 -7.4375 6.125 C-6.35082031 6.15207031 -5.26414062 6.17914062 -4.14453125 6.20703125 C-3.31308594 6.24183594 -2.48164062 6.27664062 -1.625 6.3125 C-1.625 5.3225 -1.625 4.3325 -1.625 3.3125 C-8.36451573 0.37162041 -10.92643583 -0.13433399 -17.625 3.3125 Z "
          fill="#ffffff" transform="translate(34.625,10.6875)"/>
</svg>
