<?xml version="1.0" encoding="UTF-8"?>
<svg version="1.1" xmlns="http://www.w3.org/2000/svg" width="48" height="48">
    <path d="M0 0 C0.91765137 -0.00315216 1.83530273 -0.00630432 2.78076172 -0.009552 C4.27760498 -0.00651566 4.27760498 -0.00651566 5.8046875 -0.00341797 C6.82191895 -0.00437469 7.83915039 -0.00533142 8.88720703 -0.00631714 C11.04264386 -0.00699908 13.19808272 -0.00514382 15.35351562 -0.00097656 C18.66541121 0.00437148 21.97717117 -0.0009211 25.2890625 -0.00732422 C27.37760447 -0.00666344 29.46614635 -0.00538228 31.5546875 -0.00341797 C32.55258301 -0.0054422 33.55047852 -0.00746643 34.57861328 -0.009552 C35.49626465 -0.00639984 36.41391602 -0.00324768 37.359375 0 C38.17132324 0.00079559 38.98327148 0.00159119 39.81982422 0.00241089 C41.6796875 0.12939453 41.6796875 0.12939453 42.6796875 1.12939453 C42.46674702 10.20337718 41.13317145 19.27832007 39.8671875 28.25439453 C39.71443359 29.45837891 39.56167969 30.66236328 39.40429688 31.90283203 C39.24123047 33.05267578 39.07816406 34.20251953 38.91015625 35.38720703 C38.76989014 36.41990723 38.62962402 37.45260742 38.48510742 38.51660156 C37.51320192 41.66947598 36.4876975 42.49059231 33.6796875 44.12939453 C26.1059533 47.64577112 19.46161157 49.65758017 11.3671875 47.07080078 C2.25338315 43.70309018 2.25338315 43.70309018 -0.3203125 41.12939453 C-0.84437402 38.72673097 -1.26049833 36.39027782 -1.609375 33.96142578 C-1.71752533 33.24838791 -1.82567566 32.53535004 -1.93710327 31.80070496 C-2.16450965 30.2890334 -2.3878411 28.77674411 -2.60742188 27.26391602 C-2.94169061 24.96678453 -3.29006373 22.67213648 -3.640625 20.37744141 C-3.86022462 18.90556271 -4.07900046 17.43356082 -4.296875 15.96142578 C-4.39996979 15.28199417 -4.50306458 14.60256256 -4.60928345 13.90254211 C-5.22369781 9.61369991 -5.49854528 5.46031345 -5.3203125 1.12939453 C-3.74730922 -0.44360875 -2.18347205 0.00213949 0 0 Z M-2.3203125 3.12939453 C-1.9903125 7.08939453 -1.6603125 11.04939453 -1.3203125 15.12939453 C-1.22975586 16.31009521 -1.13919922 17.4907959 -1.04589844 18.70727539 C-0.48880625 31.89463397 -0.48880625 31.89463397 5.51953125 42.89111328 C9.03874812 44.32425994 11.89303515 44.91952111 15.6796875 45.12939453 C16.5046875 45.17966797 17.3296875 45.22994141 18.1796875 45.28173828 C20.49757683 45.18653926 22.43164842 44.69733503 24.6796875 44.12939453 C25.50428467 43.99782959 26.32888184 43.86626465 27.1784668 43.73071289 C30.30083724 42.9590739 32.18752018 42.19367605 34.6796875 40.12939453 C36.72449434 34.75723235 37.22969218 29.31825443 37.8046875 23.62939453 C37.99579931 22.09110641 38.19107155 20.55332911 38.390625 19.01611328 C39.05804319 13.71282491 39.6796875 8.48344819 39.6796875 3.12939453 C25.8196875 3.12939453 11.9596875 3.12939453 -2.3203125 3.12939453 Z "
          fill="#ffffff" transform="translate(5.3203125,-0.12939453125)"/>
    <path d="M0 0 C6.93 0 13.86 0 21 0 C21.33 1.32 21.66 2.64 22 4 C16.06 7.465 16.06 7.465 10 11 C13.96 11.33 17.92 11.66 22 12 C22.18181818 22.36363636 22.18181818 22.36363636 21 27 C17.97052997 29.52455836 14.93964072 30.81239806 11 31 C4.68421053 28.68421053 4.68421053 28.68421053 3 27 C2.95907063 24.66702567 2.95758277 22.33294775 3 20 C3.99 20.33 4.98 20.66 6 21 C6 22.65 6 24.3 6 26 C9.96 26 13.92 26 18 26 C18.33 22.37 18.66 18.74 19 15 C17.62714844 15.01740234 17.62714844 15.01740234 16.2265625 15.03515625 C14.44378906 15.04869141 14.44378906 15.04869141 12.625 15.0625 C11.44164062 15.07410156 10.25828125 15.08570313 9.0390625 15.09765625 C6 15 6 15 4 14 C4 12.68 4 11.36 4 10 C7.11778441 7.57258214 10.5253344 5.91106608 14 4 C7.07 3.505 7.07 3.505 0 3 C0 2.01 0 1.02 0 0 Z "
          fill="#ffffff" transform="translate(12,8)"/>
</svg>
