<?xml version="1.0" encoding="UTF-8"?>
<svg version="1.1" xmlns="http://www.w3.org/2000/svg" width="48" height="48">
    <path d="M0 0 C0.91765137 -0.00315216 1.83530273 -0.00630432 2.78076172 -0.009552 C4.27760498 -0.00651566 4.27760498 -0.00651566 5.8046875 -0.00341797 C6.82191895 -0.00437469 7.83915039 -0.00533142 8.88720703 -0.00631714 C11.04264386 -0.00699908 13.19808272 -0.00514382 15.35351562 -0.00097656 C18.66541121 0.00437148 21.97717117 -0.0009211 25.2890625 -0.00732422 C27.37760447 -0.00666344 29.46614635 -0.00538228 31.5546875 -0.00341797 C32.55258301 -0.0054422 33.55047852 -0.00746643 34.57861328 -0.009552 C35.49626465 -0.00639984 36.41391602 -0.00324768 37.359375 0 C38.17132324 0.00079559 38.98327148 0.00159119 39.81982422 0.00241089 C41.6796875 0.12939453 41.6796875 0.12939453 42.6796875 1.12939453 C42.45616695 9.81911251 41.07563077 18.53286085 39.8671875 27.12939453 C39.63805664 28.92957031 39.63805664 28.92957031 39.40429688 30.76611328 C39.24123047 31.91724609 39.07816406 33.06837891 38.91015625 34.25439453 C38.76989014 35.28822266 38.62962402 36.32205078 38.48510742 37.38720703 C37.52534824 40.65486847 36.2952458 41.99332479 33.6796875 44.12939453 C30.91015625 45.39501953 30.91015625 45.39501953 27.8671875 46.37939453 C26.87074219 46.71455078 25.87429687 47.04970703 24.84765625 47.39501953 C18.5368167 48.85795151 13.46306068 48.10321737 7.3671875 46.06689453 C5.54767578 45.49261719 5.54767578 45.49261719 3.69140625 44.90673828 C0.6796875 43.12939453 0.6796875 43.12939453 -0.60546875 40.28564453 C-0.88011749 38.90697656 -1.11190459 37.51961877 -1.3203125 36.12939453 C-1.57470093 34.65998413 -1.57470093 34.65998413 -1.83422852 33.16088867 C-2.4146437 29.67661482 -2.93546851 26.18715835 -3.4453125 22.69189453 C-3.62707031 21.50273437 -3.80882812 20.31357422 -3.99609375 19.08837891 C-4.8877055 13.05156402 -5.66151431 7.23393987 -5.3203125 1.12939453 C-3.74730922 -0.44360875 -2.18347205 0.00213949 0 0 Z M-2.3203125 3.12939453 C-1.9903125 7.08939453 -1.6603125 11.04939453 -1.3203125 15.12939453 C-1.22975586 16.31009521 -1.13919922 17.4907959 -1.04589844 18.70727539 C-0.60017631 30.93361952 -0.60017631 30.93361952 4.04394531 41.75146484 C9.17999107 45.33940045 15.64009909 45.44724353 21.6796875 45.12939453 C25.14477585 44.07393598 25.14477585 44.07393598 28.5546875 42.62939453 C29.70710938 42.16533203 30.85953125 41.70126953 32.046875 41.22314453 C33.35011719 40.68173828 33.35011719 40.68173828 34.6796875 40.12939453 C35.39558018 35.50350927 36.10754952 30.87704345 36.81591797 26.25 C37.0573574 24.6765927 37.29986095 23.10334829 37.54345703 21.53027344 C37.89376409 19.2668609 38.24021806 17.00288675 38.5859375 14.73876953 C38.74999084 13.68698517 38.74999084 13.68698517 38.9173584 12.61395264 C39.40614204 9.38945579 39.6796875 6.40330208 39.6796875 3.12939453 C25.8196875 3.12939453 11.9596875 3.12939453 -2.3203125 3.12939453 Z "
          fill="#ffffff" transform="translate(5.3203125,-0.12939453125)"/>
    <path d="M0 0 C7.92 0 15.84 0 24 0 C24 0.99 24 1.98 24 3 C17.07 3 10.14 3 3 3 C3.33 5.97 3.66 8.94 4 12 C9.94 12 15.88 12 22 12 C21.25 25.625 21.25 25.625 19 29 C14.19012242 30.82443632 11.35709251 31.45721283 6.5 29.625 C5.345 29.08875 4.19 28.5525 3 28 C2.67 25.36 2.34 22.72 2 20 C2.99 20 3.98 20 5 20 C5.33 21.98 5.66 23.96 6 26 C9.96 26 13.92 26 18 26 C17.979375 24.9275 17.95875 23.855 17.9375 22.75 C17.98663398 19.80196101 18.22283909 17.76595853 19 15 C17.30230469 15.01740234 17.30230469 15.01740234 15.5703125 15.03515625 C14.08854331 15.04453454 12.60677235 15.0536347 11.125 15.0625 C10.37863281 15.07087891 9.63226563 15.07925781 8.86328125 15.08789062 C3.2265625 15.11328125 3.2265625 15.11328125 1 14 C-0.17569526 9.17964943 0 5.10343073 0 0 Z "
          fill="#ffffff" transform="translate(12,8)"/>
</svg>
