<?xml version="1.0" encoding="UTF-8"?>
<svg version="1.1" xmlns="http://www.w3.org/2000/svg" width="48" height="48">
    <path d="M0 0 C-0.33 0.66 -0.66 1.32 -1 2 C6.90792315 3.14792433 14.24486772 3.09406318 22 1 C22 1.99 22 2.98 22 4 C19.00873681 5.72206188 16.89314287 6.24179923 13.453125 6.1953125 C12.18662109 6.18564453 12.18662109 6.18564453 10.89453125 6.17578125 C10.02183594 6.15902344 9.14914063 6.14226563 8.25 6.125 C7.36183594 6.11597656 6.47367188 6.10695313 5.55859375 6.09765625 C3.37211942 6.07414577 1.18619906 6.04128499 -1 6 C-1 6.99 -1 7.98 -1 9 C5.93302093 9.22731216 12.2168636 8.42002108 19 7 C19.33 7.66 19.66 8.32 20 9 C19.67 9.66 19.34 10.32 19 11 C15.43913342 12.18695553 12.02668976 12.35095418 8.3125 12.5625 C7.61060547 12.60568359 6.90871094 12.64886719 6.18554688 12.69335938 C4.45724794 12.7991736 2.7286489 12.90006581 1 13 C1 13.33 1 13.66 1 14 C1.89203125 14 2.7840625 14 3.703125 14 C8.46875 14 13.234375 14 18 14 C17 17 17 17 15 18 C12.50746624 18.12419345 10.05509244 18.18515513 7.5625 18.1875 C6.88123047 18.19974609 6.19996094 18.21199219 5.49804688 18.22460938 C1.77170191 18.23555848 0.18008429 18.12005619 -3 16 C-2.67 14.35 -2.34 12.7 -2 11 C-2.99 10.67 -3.98 10.34 -5 10 C-4.67 8.35 -4.34 6.7 -4 5 C-5.32 4.67 -6.64 4.34 -8 4 C-7.625 2.0625 -7.625 2.0625 -7 0 C-4.3333581 -1.33332095 -2.83319697 -0.67102033 0 0 Z "
          fill="#ffffff" transform="translate(15,24)"/>
    <path d="M0 0 C0 0.99 0 1.98 0 3 C-1.32 3 -2.64 3 -4 3 C-4 3.66 -4 4.32 -4 5 C6.97433155 5.85755072 17.14471574 6.32385851 28 4 C29.66666667 3.66666667 31.33333333 3.33333333 33 3 C32.375 4.875 32.375 4.875 31 7 C24.72685509 9.57946835 18.74142688 9.33108355 12.0625 9.3125 C10.3309668 9.33666992 10.3309668 9.33666992 8.56445312 9.36132812 C2.26636553 9.36494149 -2.44769207 9.06306362 -8 6 C-7.625 3.5625 -7.625 3.5625 -7 1 C-4.53721199 -0.231394 -2.7204945 -0.07159196 0 0 Z "
          fill="#ffffff" transform="translate(10,39)"/>
    <path d="M0 0 C0.99 0 1.98 0 3 0 C1.62093436 6.39384979 1.62093436 6.39384979 -1.625 9.5625 C-4.2501253 11.81735972 -4.2501253 11.81735972 -4.625 15.0625 C-3.80739808 18.90522902 -2.14305828 19.79985921 1 22 C1 22.66 1 23.32 1 24 C-4.49225268 23.3897497 -4.49225268 23.3897497 -6.6640625 21.72265625 C-8.77464207 19.00111944 -8.58863753 16.69556346 -8.49609375 13.34765625 C-7.76728735 9.89873776 -5.98321076 8.027054 -3.5078125 5.60546875 C-1.87021184 3.86180587 -0.97137989 2.17381617 0 0 Z "
          fill="#ffffff" transform="translate(23,0)"/>
    <path d="M0 0 C6.0495283 0.44811321 6.0495283 0.44811321 8.9375 2.125 C10.69937187 5.23418565 10.48159369 7.50844577 10 11 C7.6875 13.9375 7.6875 13.9375 5 16 C4.01 16 3.02 16 2 16 C2.3125 14.125 2.3125 14.125 3 12 C3.99 11.34 4.98 10.68 6 10 C6.25030977 7.41619823 6.25030977 7.41619823 6 5 C3.69 4.67 1.38 4.34 -1 4 C-1 1 -1 1 0 0 Z "
          fill="#ffffff" transform="translate(36,20)"/>
    <path d="M0 0 C0 0.99 0 1.98 0 3 C-0.99 3.66 -1.98 4.32 -3 5 C-2.855625 5.515625 -2.71125 6.03125 -2.5625 6.5625 C-1.84190099 9.68509571 -1.42733561 12.82550692 -1 16 C-1.99 16 -2.98 16 -4 16 C-6.61585364 10.87292686 -7.58927882 7.78951572 -6 2 C-3 0 -3 0 0 0 Z "
          fill="#ffffff" transform="translate(29,8)"/>
</svg>
