<?xml version="1.0" encoding="UTF-8"?>
<svg version="1.1" xmlns="http://www.w3.org/2000/svg" width="48" height="48">
    <path d="M0 0 C1.60332791 -0.08121924 3.20784026 -0.13929134 4.8125 -0.1875 C6.15248047 -0.23970703 6.15248047 -0.23970703 7.51953125 -0.29296875 C10 0 10 0 11.80078125 1.32421875 C13.65747311 3.91874907 13.38675552 5.90595582 13 9 C11.36842328 11.18061524 10.41442366 11.90623575 7.73828125 12.51171875 C6.93777344 12.56972656 6.13726562 12.62773437 5.3125 12.6875 C4.10013672 12.78611328 4.10013672 12.78611328 2.86328125 12.88671875 C2.24839844 12.92410156 1.63351563 12.96148437 1 13 C0.34 15.64 -0.32 18.28 -1 21 C-1.99 21 -2.98 21 -4 21 C-2.98208077 13.89622327 -1.90094901 6.92488567 0 0 Z M3 2 C2.34 4.64 1.68 7.28 1 10 C3.64 9.67 6.28 9.34 9 9 C10.01111093 5.95086772 10.01111093 5.95086772 9 3 C5.97065509 2.34227572 5.97065509 2.34227572 3 2 Z "
          fill="#ffffff" transform="translate(35,18)"/>
    <path d="M0 0 C1.60332791 -0.08121924 3.20784026 -0.13929134 4.8125 -0.1875 C6.15248047 -0.23970703 6.15248047 -0.23970703 7.51953125 -0.29296875 C10 0 10 0 11.80078125 1.32421875 C13.65747311 3.91874907 13.38675552 5.90595582 13 9 C11.36842328 11.18061524 10.41442366 11.90623575 7.73828125 12.51171875 C6.93777344 12.56972656 6.13726562 12.62773437 5.3125 12.6875 C4.10013672 12.78611328 4.10013672 12.78611328 2.86328125 12.88671875 C2.24839844 12.92410156 1.63351563 12.96148437 1 13 C0.34 15.64 -0.32 18.28 -1 21 C-1.99 21 -2.98 21 -4 21 C-2.98208077 13.89622327 -1.90094901 6.92488567 0 0 Z M3 2 C2.34 4.64 1.68 7.28 1 10 C3.64 9.67 6.28 9.34 9 9 C10.01111093 5.95086772 10.01111093 5.95086772 9 3 C5.97065509 2.34227572 5.97065509 2.34227572 3 2 Z "
          fill="#ffffff" transform="translate(4,18)"/>
    <path d="M0 0 C0.99 0 1.98 0 3 0 C2.67 2.64 2.34 5.28 2 8 C3.134375 8.309375 4.26875 8.61875 5.4375 8.9375 C9 10 9 10 10 11 C10.13568319 14.66344611 10.16461426 17.50615721 9 21 C8.01 21 7.02 21 6 21 C6.495 16.545 6.495 16.545 7 12 C4.03 11.505 4.03 11.505 1 11 C0.34 14.3 -0.32 17.6 -1 21 C-1.99 21 -2.98 21 -4 21 C-3.29843593 13.84404654 -1.69214979 6.98144819 0 0 Z "
          fill="#ffffff" transform="translate(22,9)"/>
</svg>
