<?xml version="1.0" standalone="no"?>
<!DOCTYPE svg PUBLIC "-//W3C//DTD SVG 20010904//EN"
        "http://www.w3.org/TR/2001/REC-SVG-20010904/DTD/svg10.dtd">
<svg version="1.0" xmlns="http://www.w3.org/2000/svg"
     width="48.000000pt" height="48.000000pt" viewBox="0 0 48.000000 48.000000"
     preserveAspectRatio="xMidYMid meet">

    <g transform="translate(0.000000,48.000000) scale(0.100000,-0.100000)"
       fill="#ffffff" stroke="none">
        <path d="M104 425 c-11 -17 -15 -38 -11 -64 5 -37 3 -39 -39 -59 -72 -36 -70
-93 4 -126 38 -17 40 -20 35 -57 -11 -79 43 -112 113 -68 l34 21 34 -21 c70
-44 124 -11 113 68 -5 37 -3 40 35 57 74 33 76 90 4 126 -42 20 -44 22 -39 59
11 79 -43 111 -113 68 l-34 -21 -34 21 c-46 29 -82 27 -102 -4z m95 -14 c24
-18 24 -20 8 -44 -16 -25 -67 -44 -87 -32 -11 7 -14 54 -4 79 8 22 53 20 83
-3z m165 3 c10 -25 7 -72 -4 -79 -20 -12 -69 6 -85 32 -17 25 -17 27 6 44 30
23 75 25 83 3z m-104 -59 c11 -13 8 -15 -14 -15 -25 0 -33 10 -19 23 10 11 19
8 33 -8z m49 -75 l22 -40 -22 -40 c-21 -38 -25 -40 -69 -40 -44 0 -48 2 -69
40 l-22 40 22 40 c21 38 25 40 69 40 44 0 48 -2 69 -40z m-149 21 c0 -5 -6
-14 -14 -20 -11 -9 -15 -7 -19 9 -4 15 0 20 14 20 10 0 19 -4 19 -9z m190 -5
c0 -8 -4 -18 -10 -21 -5 -3 -10 -4 -10 -1 0 2 -3 11 -6 20 -4 11 -1 16 10 16
9 0 16 -6 16 -14z m-235 -26 c8 -37 -3 -90 -18 -90 -26 0 -77 40 -77 60 0 20
51 60 77 60 6 0 14 -13 18 -30z m313 10 c19 -12 32 -28 32 -40 0 -20 -51 -60
-77 -60 -15 0 -26 53 -18 90 8 35 18 37 63 10z m-268 -102 c0 -5 -7 -8 -15 -8
-15 0 -20 21 -8 33 7 7 23 -11 23 -25z m183 -6 c-22 -5 -27 6 -12 24 12 15 14
14 20 -3 4 -12 1 -19 -8 -21z m-176 -28 c12 -3 30 -18 39 -32 16 -24 16 -26
-7 -43 -30 -23 -75 -25 -83 -3 -8 21 -8 69 1 77 8 8 21 9 50 1z m201 -23 c2
-12 1 -34 -2 -47 -8 -30 -50 -32 -85 -5 -20 15 -22 21 -12 40 24 44 94 53 99
12z m-108 10 c0 -19 -22 -23 -38 -7 -15 15 -14 16 11 16 15 0 27 -4 27 -9z"/>
        <path d="M210 265 c-15 -18 -10 -45 13 -59 34 -22 73 27 47 59 -16 19 -44 19
-60 0z m46 -16 c10 -17 -13 -36 -27 -22 -12 12 -4 33 11 33 5 0 12 -5 16 -11z"/>
    </g>
</svg>
