<?xml version="1.0" standalone="no"?>
<!DOCTYPE svg PUBLIC "-//W3C//DTD SVG 20010904//EN"
        "http://www.w3.org/TR/2001/REC-SVG-20010904/DTD/svg10.dtd">
<svg version="1.0" xmlns="http://www.w3.org/2000/svg"
     width="48.000000pt" height="48.000000pt" viewBox="0 0 48.000000 48.000000"
     preserveAspectRatio="xMidYMid meet">

    <g transform="translate(0.000000,48.000000) scale(0.100000,-0.100000)"
       fill="#ffffff" stroke="none">
        <path d="M5 467 c-3 -7 -4 -114 -3 -237 l3 -225 235 0 235 0 0 235 0 235 -233
3 c-183 2 -234 0 -237 -11z m455 -227 l0 -220 -220 0 -220 0 0 220 0 220 220
0 220 0 0 -220z"/>
        <path d="M130 270 c0 -5 14 -10 30 -10 l30 0 0 -100 c0 -60 4 -100 10 -100 6
0 10 40 10 100 l0 100 30 0 c17 0 30 5 30 10 0 6 -30 10 -70 10 -40 0 -70 -4
-70 -10z"/>
        <path d="M320 260 c-37 -37 -26 -67 38 -99 44 -22 54 -48 27 -71 -20 -17 -48
-9 -60 18 -11 25 -25 29 -25 7 0 -22 37 -55 60 -55 25 0 60 34 60 58 0 26 -11
37 -57 61 -45 22 -55 48 -28 71 20 17 48 9 60 -18 11 -25 25 -29 25 -7 0 22
-37 55 -60 55 -11 0 -29 -9 -40 -20z"/>
    </g>
</svg>
